<svg width="25" height="25" viewBox="0 0 25 25" fill="none" xmlns="http://www.w3.org/2000/svg">
<path d="M22.3129 12.2102C22.3129 11.4411 21.6894 10.8176 20.9203 10.8176H13.957V3.85427C13.957 3.08512 13.3335 2.46161 12.5643 2.46161C11.7952 2.46161 11.1717 3.08512 11.1717 3.85427V10.8176H4.20838C3.43923 10.8176 2.81572 11.4411 2.81572 12.2102C2.81572 12.9794 3.43923 13.6029 4.20838 13.6029H11.1717V20.5662C11.1717 21.3353 11.7952 21.9588 12.5643 21.9588C13.3335 21.9588 13.957 21.3353 13.957 20.5662V13.6029H20.9203C21.6894 13.6029 22.3129 12.9794 22.3129 12.2102Z" fill="white"/>
</svg>
